<svg width="24" height="24" viewBox="0 0 24 24" fill="none" xmlns="http://www.w3.org/2000/svg">
<mask id="mask0_66_7" style="mask-type:alpha" maskUnits="userSpaceOnUse" x="0" y="0" width="24" height="24">
<rect width="24" height="24" fill="#D9D9D9"/>
</mask>
<g mask="url(#mask0_66_7)">
<path d="M12 12.6971C11.0375 12.6971 10.2136 12.3545 9.52825 11.6691C8.84275 10.9836 8.5 10.1596 8.5 9.19713V6.07213C8.5 5.7063 8.62717 5.3953 8.8815 5.13913C9.13567 4.88297 9.44442 4.75488 9.80775 4.75488C10.0321 4.75488 10.2408 4.8068 10.4338 4.91063C10.6266 5.01447 10.7832 5.15872 10.9037 5.34338C11.0244 5.15872 11.1812 5.01447 11.374 4.91063C11.567 4.8068 11.7757 4.75488 12 4.75488C12.2243 4.75488 12.433 4.8068 12.626 4.91063C12.8188 5.01447 12.9756 5.15872 13.0962 5.34338C13.2167 5.15872 13.3734 5.01447 13.5663 4.91063C13.7593 4.8068 13.9663 4.75488 14.1875 4.75488C14.556 4.75488 14.8669 4.88297 15.1202 5.13913C15.3734 5.3953 15.5 5.7063 15.5 6.07213V9.19713C15.5 10.1596 15.1573 10.9836 14.4718 11.6691C13.7864 12.3545 12.9625 12.6971 12 12.6971ZM12 11.1971C12.55 11.1971 13.0208 11.0013 13.4125 10.6096C13.8042 10.218 14 9.74713 14 9.19713V6.69713H10V9.19713C10 9.74713 10.1958 10.218 10.5875 10.6096C10.9792 11.0013 11.45 11.1971 12 11.1971ZM4.5 18.7934V18.0894C4.5 17.5997 4.633 17.1462 4.899 16.7289C5.165 16.3115 5.5205 15.9907 5.9655 15.7664C6.95383 15.2819 7.95092 14.9185 8.95675 14.6761C9.96258 14.4338 10.977 14.3126 12 14.3126C13.023 14.3126 14.0374 14.4338 15.0433 14.6761C16.0491 14.9185 17.0462 15.2819 18.0345 15.7664C18.4795 15.9907 18.835 16.3115 19.101 16.7289C19.367 17.1462 19.5 17.5997 19.5 18.0894V18.7934C19.5 19.215 19.3523 19.5737 19.0568 19.8694C18.7613 20.1649 18.4026 20.3126 17.9808 20.3126H6.01925C5.59742 20.3126 5.23875 20.1649 4.94325 19.8694C4.64775 19.5737 4.5 19.215 4.5 18.7934ZM6 18.8126H18V18.0894C18 17.8869 17.9413 17.6994 17.824 17.5269C17.7067 17.3545 17.5474 17.2139 17.3462 17.1049C16.4846 16.6805 15.6061 16.359 14.7107 16.1404C13.8152 15.9219 12.9117 15.8126 12 15.8126C11.0883 15.8126 10.1848 15.9219 9.28925 16.1404C8.39392 16.359 7.51542 16.6805 6.65375 17.1049C6.45258 17.2139 6.29333 17.3545 6.176 17.5269C6.05867 17.6994 6 17.8869 6 18.0894V18.8126Z" fill="black"/>
</g>
</svg>
