<svg width="17" height="17" viewBox="0 0 17 17" fill="none" xmlns="http://www.w3.org/2000/svg">
<path d="M2.41271 15.0807C1.99715 15.0807 1.64215 14.9336 1.34771 14.6393C1.0534 14.3448 0.90625 13.9898 0.90625 13.5743V2.42052C0.90625 2.00497 1.0534 1.64997 1.34771 1.35552C1.64215 1.06122 1.99715 0.914062 2.41271 0.914062H13.5665C13.982 0.914062 14.337 1.06122 14.6315 1.35552C14.9258 1.64997 15.0729 2.00497 15.0729 2.42052V7.69135C14.8678 7.60372 14.6624 7.52948 14.4567 7.46865C14.251 7.40767 14.0397 7.35906 13.8229 7.32281V2.42052C13.8229 2.35635 13.7962 2.2976 13.7427 2.24427C13.6894 2.1908 13.6306 2.16406 13.5665 2.16406H2.41271C2.34854 2.16406 2.28979 2.1908 2.23646 2.24427C2.18299 2.2976 2.15625 2.35635 2.15625 2.42052V13.5743C2.15625 13.6384 2.18299 13.6972 2.23646 13.7505C2.28979 13.804 2.34854 13.8307 2.41271 13.8307H7.29417C7.32514 14.0614 7.37104 14.2796 7.43188 14.4853C7.49285 14.691 7.56708 14.8895 7.65458 15.0807H2.41271ZM2.15625 13.8307V2.16406V7.32281V7.26031V13.8307ZM4.03125 11.8595H7.37896C7.41535 11.6427 7.46931 11.4314 7.54083 11.2257C7.6125 11.02 7.69049 10.8147 7.77479 10.6097H4.03125V11.8595ZM4.03125 8.6224H9.315C9.67389 8.31795 10.0569 8.06288 10.464 7.85719C10.871 7.65149 11.3069 7.50538 11.7717 7.41885V7.3724H4.03125V8.6224ZM4.03125 5.3851H11.9479V4.13531H4.03125V5.3851ZM12.9896 16.7955C11.949 16.7955 11.0639 16.4307 10.3342 15.7009C9.60444 14.9712 9.23958 14.0861 9.23958 13.0455C9.23958 12.005 9.60444 11.1198 10.3342 10.3901C11.0639 9.66038 11.949 9.29552 12.9896 9.29552C14.0301 9.29552 14.9153 9.66038 15.645 10.3901C16.3747 11.1198 16.7396 12.005 16.7396 13.0455C16.7396 14.0861 16.3747 14.9712 15.645 15.7009C14.9153 16.4307 14.0301 16.7955 12.9896 16.7955ZM12.621 15.4974H13.3581V13.4141H15.4415V12.677H13.3581V10.5936H12.621V12.677H10.5377V13.4141H12.621V15.4974Z" fill="#005BA1"/>
</svg>
