<svg width="20" height="20" viewBox="0 0 20 20" fill="none" xmlns="http://www.w3.org/2000/svg">
<mask id="mask0_74_98" style="mask-type:alpha" maskUnits="userSpaceOnUse" x="0" y="0" width="20" height="20">
<rect width="20" height="20" fill="#D9D9D9"/>
</mask>
<g mask="url(#mask0_74_98)">
<path d="M5.125 14.771H11.375V13.4682H5.125V14.771ZM5.125 12.1654H14.7083V10.8626H5.125V12.1654ZM5.125 9.55979H14.7083V8.257H5.125V9.55979ZM2 21.1013V6.57009C2 6.13134 2.14583 5.75997 2.4375 5.45598C2.72917 5.15199 3.08549 5 3.50646 5H16.3269C16.7478 5 17.1042 5.15199 17.3958 5.45598C17.6875 5.75997 17.8333 6.13134 17.8333 6.57009V16.4579C17.8333 16.8966 17.6875 17.268 17.3958 17.572C17.1042 17.876 16.7478 18.028 16.3269 18.028H4.94875L2 21.1013ZM4.41667 16.7252H16.3269C16.391 16.7252 16.4498 16.6973 16.5031 16.6416C16.5566 16.586 16.5833 16.5248 16.5833 16.4579V6.57009C16.5833 6.50321 16.5566 6.44198 16.5031 6.38639C16.4498 6.33066 16.391 6.3028 16.3269 6.3028H3.50646C3.44229 6.3028 3.38354 6.33066 3.33021 6.38639C3.27674 6.44198 3.25 6.50321 3.25 6.57009V17.9279L4.41667 16.7252Z" fill="#005BA1"/>
</g>
</svg>
