<svg width="11" height="12" viewBox="0 0 11 12" fill="none" xmlns="http://www.w3.org/2000/svg">
<path d="M2.16871 11.3188C1.83726 11.3188 1.55354 11.2008 1.31754 10.9648C1.08154 10.7288 0.963542 10.4451 0.963542 10.1137V1.65217H0.796875C0.655208 1.65217 0.536486 1.60422 0.440708 1.50833C0.34482 1.41244 0.296875 1.29367 0.296875 1.152C0.296875 1.01022 0.34482 0.8915 0.440708 0.795834C0.536486 0.700056 0.655208 0.652167 0.796875 0.652167H3.29688C3.29688 0.488945 3.35438 0.349834 3.46938 0.234834C3.58427 0.119945 3.72332 0.0625 3.88654 0.0625H6.70721C6.87043 0.0625 7.00949 0.119945 7.12438 0.234834C7.23938 0.349834 7.29688 0.488945 7.29688 0.652167H9.79688C9.93855 0.652167 10.0573 0.700111 10.153 0.796C10.2489 0.891889 10.2969 1.01067 10.2969 1.15233C10.2969 1.29411 10.2489 1.41283 10.153 1.5085C10.0573 1.60428 9.93855 1.65217 9.79688 1.65217H9.63021V10.1137C9.63021 10.4451 9.51221 10.7288 9.27621 10.9648C9.04021 11.2008 8.75649 11.3188 8.42505 11.3188H2.16871ZM8.63021 1.65217H1.96354V10.1137C1.96354 10.1736 1.98276 10.2227 2.02121 10.2612C2.05965 10.2996 2.10882 10.3188 2.16871 10.3188H8.42505C8.48493 10.3188 8.5341 10.2996 8.57255 10.2612C8.61099 10.2227 8.63021 10.1736 8.63021 10.1137V1.65217ZM4.06638 8.9855C4.20804 8.9855 4.32677 8.93761 4.42254 8.84184C4.51821 8.74595 4.56604 8.62717 4.56604 8.4855V3.4855C4.56604 3.34383 4.5181 3.22506 4.42221 3.12917C4.32643 3.03339 4.20765 2.9855 4.06588 2.9855C3.92421 2.9855 3.80549 3.03339 3.70971 3.12917C3.61404 3.22506 3.56621 3.34383 3.56621 3.4855V8.4855C3.56621 8.62717 3.6141 8.74595 3.70988 8.84184C3.80577 8.93761 3.9246 8.9855 4.06638 8.9855ZM6.52788 8.9855C6.66954 8.9855 6.78827 8.93761 6.88404 8.84184C6.97971 8.74595 7.02755 8.62717 7.02755 8.4855V3.4855C7.02755 3.34383 6.97966 3.22506 6.88388 3.12917C6.78799 3.03339 6.66916 2.9855 6.52738 2.9855C6.38571 2.9855 6.26699 3.03339 6.17121 3.12917C6.07554 3.22506 6.02771 3.34383 6.02771 3.4855V8.4855C6.02771 8.62717 6.07565 8.74595 6.17154 8.84184C6.26732 8.93761 6.3861 8.9855 6.52788 8.9855Z" fill="#1C1B1F"/>
</svg>
