<svg width="20" height="20" viewBox="0 0 20 20" fill="none" xmlns="http://www.w3.org/2000/svg">
<mask id="mask0_66_339" style="mask-type:alpha" maskUnits="userSpaceOnUse" x="0" y="0" width="20" height="20">
<rect width="20" height="20" fill="#D9D9D9"/>
</mask>
<g mask="url(#mask0_66_339)">
<path d="M13.6497 16.9124L15.8707 14.6914V16.5118H16.608V13.4349H13.5311V14.172H15.3516L13.1305 16.3932L13.6497 16.9124ZM4.42052 17.0807C4.00497 17.0807 3.64997 16.9336 3.35552 16.6393C3.06122 16.3448 2.91406 15.9898 2.91406 15.5743V4.42052C2.91406 4.00497 3.06122 3.64997 3.35552 3.35552C3.64997 3.06122 4.00497 2.91406 4.42052 2.91406H15.5743C15.9898 2.91406 16.3448 3.06122 16.6393 3.35552C16.9336 3.64997 17.0807 4.00497 17.0807 4.42052V9.69135C16.8756 9.60372 16.6702 9.52948 16.4645 9.46865C16.2588 9.40767 16.0475 9.35906 15.8307 9.32281V4.42052C15.8307 4.35635 15.804 4.2976 15.7505 4.24427C15.6972 4.1908 15.6384 4.16406 15.5743 4.16406H4.42052C4.35635 4.16406 4.2976 4.1908 4.24427 4.24427C4.1908 4.2976 4.16406 4.35635 4.16406 4.42052V15.5743C4.16406 15.6384 4.1908 15.6972 4.24427 15.7505C4.2976 15.804 4.35635 15.8307 4.42052 15.8307H9.30198C9.33295 16.0614 9.37885 16.2796 9.43969 16.4853C9.50066 16.691 9.5749 16.8895 9.6624 17.0807H4.42052ZM4.16406 15.8307V4.16406V9.32281V9.26031V15.8307ZM6.03906 13.8595H9.38677C9.42316 13.6427 9.47712 13.4314 9.54865 13.2257C9.62031 13.02 9.6983 12.8147 9.7826 12.6097H6.03906V13.8595ZM6.03906 10.6224H11.3228C11.6817 10.318 12.0647 10.0629 12.4718 9.85719C12.8789 9.65149 13.3148 9.50538 13.7795 9.41885V9.3724H6.03906V10.6224ZM6.03906 7.3851H13.9557V6.13531H6.03906V7.3851ZM14.9974 18.7955C13.9568 18.7955 13.0717 18.4307 12.342 17.7009C11.6123 16.9712 11.2474 16.0861 11.2474 15.0455C11.2474 14.005 11.6123 13.1198 12.342 12.3901C13.0717 11.6604 13.9568 11.2955 14.9974 11.2955C16.038 11.2955 16.9231 11.6604 17.6528 12.3901C18.3825 13.1198 18.7474 14.005 18.7474 15.0455C18.7474 16.0861 18.3825 16.9712 17.6528 17.7009C16.9231 18.4307 16.038 18.7955 14.9974 18.7955Z" fill="#005BA1"/>
</g>
</svg>
