<svg width="29" height="29" viewBox="0 0 29 29" fill="none" xmlns="http://www.w3.org/2000/svg">
<path d="M28.5615 11.5966H27.3999V11.5368H14.421V17.3052H22.571C21.382 20.6631 18.187 23.0736 14.421 23.0736C9.64259 23.0736 5.76839 19.1994 5.76839 14.421C5.76839 9.6426 9.64259 5.7684 14.421 5.7684C16.6267 5.7684 18.6333 6.60049 20.1613 7.95966L24.2402 3.88069C21.6646 1.48031 18.2195 0 14.421 0C6.45699 0 0 6.457 0 14.421C0 22.385 6.45699 28.842 14.421 28.842C22.385 28.842 28.842 22.385 28.842 14.421C28.842 13.4541 28.7425 12.5102 28.5615 11.5966Z" fill="#FFC107"/>
<path d="M1.6875 7.70874L6.42551 11.1835C7.70754 8.00942 10.8124 5.7684 14.4457 5.7684C16.6514 5.7684 18.6581 6.60049 20.186 7.95967L24.265 3.88069C21.6894 1.48032 18.2442 0 14.4457 0C8.90665 0 4.10302 3.12719 1.6875 7.70874Z" fill="#FF3D00"/>
<path d="M14.4242 28.8397C18.1492 28.8397 21.5338 27.4141 24.0928 25.096L19.6295 21.3191C18.1816 22.4158 16.3819 23.0713 14.4242 23.0713C10.6733 23.0713 7.48844 20.6795 6.28862 17.3418L1.58594 20.9651C3.97261 25.6353 8.8195 28.8397 14.4242 28.8397Z" fill="#4CAF50"/>
<path d="M28.5702 11.5911H27.4086V11.5312H14.4297V17.2996H22.5797C22.0086 18.9126 20.971 20.3035 19.6328 21.3166C19.6335 21.3159 19.6342 21.3159 19.6349 21.3152L24.0982 25.092C23.7824 25.379 28.8507 21.6259 28.8507 14.4154C28.8507 13.4485 28.7512 12.5047 28.5702 11.5911Z" fill="#1976D2"/>
</svg>
