<svg width="20" height="20" viewBox="0 0 20 20" fill="none" xmlns="http://www.w3.org/2000/svg">
<mask id="mask0_28_2179" style="mask-type:alpha" maskUnits="userSpaceOnUse" x="0" y="0" width="20" height="20">
<rect width="20" height="20" fill="#D9D9D9"/>
</mask>
<g mask="url(#mask0_28_2179)">
<path d="M5.25646 18.75C4.83549 18.75 4.47917 18.6042 4.1875 18.3125C3.89583 18.0208 3.75 17.6645 3.75 17.2435V8.5898C3.75 8.16882 3.89583 7.8125 4.1875 7.52084C4.47917 7.22917 4.83549 7.08334 5.25646 7.08334H7.38771V8.33334H5.25646C5.19229 8.33334 5.13354 8.36007 5.08021 8.41354C5.02674 8.46688 5 8.52563 5 8.5898V17.2435C5 17.3077 5.02674 17.3665 5.08021 17.4198C5.13354 17.4733 5.19229 17.5 5.25646 17.5H14.7435C14.8077 17.5 14.8665 17.4733 14.9198 17.4198C14.9733 17.3665 15 17.3077 15 17.2435V8.5898C15 8.52563 14.9733 8.46688 14.9198 8.41354C14.8665 8.36007 14.8077 8.33334 14.7435 8.33334H12.6123V7.08334H14.7435C15.1645 7.08334 15.5208 7.22917 15.8125 7.52084C16.1042 7.8125 16.25 8.16882 16.25 8.5898V17.2435C16.25 17.6645 16.1042 18.0208 15.8125 18.3125C15.5208 18.6042 15.1645 18.75 14.7435 18.75H5.25646ZM9.375 13.125V3.93271L7.83333 5.47438L6.95521 4.58334L10 1.53854L13.0448 4.58334L12.1667 5.47438L10.625 3.93271V13.125H9.375Z" fill="#005BA1"/>
</g>
</svg>
