<svg width="34" height="34" viewBox="0 0 34 34" fill="none" xmlns="http://www.w3.org/2000/svg">
<mask id="mask0_66_329" style="mask-type:alpha" maskUnits="userSpaceOnUse" x="0" y="0" width="34" height="34">
<rect y="16.6562" width="24" height="24" transform="rotate(-43.945 0 16.6562)" fill="#D9D9D9"/>
</mask>
<g mask="url(#mask0_66_329)">
<path d="M19.7166 21.2629L16.8366 24.0388C15.8406 24.9988 14.6533 25.4661 13.2746 25.4407C11.896 25.4153 10.7267 24.9046 9.76671 23.9086C8.80673 22.9126 8.33942 21.7253 8.36481 20.3467C8.3902 18.9681 8.9009 17.7987 9.89691 16.8388L12.7769 14.0629L14.1649 15.5029L11.2848 18.2788C10.6848 18.8571 10.3772 19.5586 10.362 20.3835C10.3469 21.2083 10.6284 21.9207 11.2067 22.5207C11.785 23.1207 12.4866 23.4283 13.3114 23.4435C14.1362 23.4587 14.8486 23.1771 15.4486 22.5988L18.3287 19.8229L19.7166 21.2629ZM14.7807 20.4648L13.3928 19.0248L19.1528 13.4731L20.5408 14.9131L14.7807 20.4648ZM21.1566 19.875L19.7687 18.435L22.6487 15.6591C23.2487 15.0808 23.5563 14.3793 23.5715 13.5544C23.5867 12.7296 23.3051 12.0172 22.7268 11.4172C22.1485 10.8172 21.447 10.5096 20.6221 10.4944C19.7973 10.4792 19.0849 10.7608 18.4849 11.3391L15.6049 14.115L14.2169 12.6749L17.097 9.89908C18.093 8.93909 19.2803 8.47179 20.6589 8.49717C22.0375 8.52256 23.2068 9.03326 24.1668 10.0293C25.1268 11.0253 25.5941 12.2126 25.5687 13.5912C25.5434 14.9698 25.0327 16.1391 24.0366 17.0991L21.1566 19.875Z" fill="black" fill-opacity="0.5"/>
</g>
</svg>
