<svg width="19" height="19" viewBox="0 0 19 19" fill="none" xmlns="http://www.w3.org/2000/svg">
<path d="M2.96875 18.9688C2.41875 18.9688 1.94792 18.7729 1.55625 18.3813C1.16458 17.9896 0.96875 17.5187 0.96875 16.9688V2.96875C0.96875 2.41875 1.16458 1.94792 1.55625 1.55625C1.94792 1.16458 2.41875 0.96875 2.96875 0.96875H9.96875V2.96875H2.96875V16.9688H16.9688V9.96875H18.9688V16.9688C18.9688 17.5187 18.7729 17.9896 18.3813 18.3813C17.9896 18.7729 17.5187 18.9688 16.9688 18.9688H2.96875ZM7.66875 13.6687L6.26875 12.2688L15.5688 2.96875H11.9688V0.96875H18.9688V7.96875H16.9688V4.36875L7.66875 13.6687Z" fill="black" fill-opacity="0.5"/>
</svg>
