<svg width="15" height="16" viewBox="0 0 15 16" fill="none" xmlns="http://www.w3.org/2000/svg">
<path d="M12.0072 15.9154C11.3834 15.9154 10.8539 15.6972 10.4184 15.261C9.98316 14.8247 9.76552 14.295 9.76552 13.6718C9.76552 13.5885 9.79434 13.386 9.85198 13.0643L3.92573 9.57557C3.7249 9.78391 3.48628 9.9471 3.2099 10.0652C2.93351 10.1832 2.6374 10.2422 2.32156 10.2422C1.70059 10.2422 1.17274 10.0232 0.738021 9.58516C0.303299 9.1471 0.0859375 8.61828 0.0859375 7.9987C0.0859375 7.37911 0.303299 6.85029 0.738021 6.41224C1.17274 5.97418 1.70059 5.75516 2.32156 5.75516C2.6374 5.75516 2.93351 5.81418 3.2099 5.93224C3.48628 6.05029 3.7249 6.21349 3.92573 6.42182L9.85198 2.94099C9.81892 2.83849 9.79622 2.73807 9.78385 2.63974C9.77163 2.54141 9.76552 2.43668 9.76552 2.32557C9.76552 1.70238 9.98378 1.17266 10.4203 0.736406C10.857 0.300156 11.3872 0.0820312 12.0109 0.0820312C12.6347 0.0820312 13.1642 0.300365 13.5995 0.737031C14.0349 1.17356 14.2526 1.7037 14.2526 2.32745C14.2526 2.9512 14.0345 3.48078 13.5982 3.9162C13.162 4.35148 12.6323 4.56911 12.0091 4.56911C11.6917 4.56911 11.3966 4.50877 11.1236 4.38807C10.8506 4.26738 10.6136 4.10286 10.4128 3.89453L4.48656 7.38328C4.51962 7.48592 4.54233 7.58634 4.55469 7.68453C4.56691 7.78286 4.57302 7.88759 4.57302 7.9987C4.57302 8.10981 4.56691 8.21453 4.55469 8.31286C4.54233 8.41106 4.51962 8.51148 4.48656 8.61411L10.4128 12.1029C10.6136 11.8945 10.8506 11.73 11.1236 11.6093C11.3966 11.4886 11.6917 11.4283 12.0091 11.4283C12.6323 11.4283 13.162 11.6465 13.5982 12.0831C14.0345 12.5197 14.2526 13.0499 14.2526 13.6737C14.2526 14.2974 14.0343 14.827 13.5976 15.2622C13.1611 15.6977 12.6309 15.9154 12.0072 15.9154ZM12.0091 14.6654C12.2906 14.6654 12.5266 14.5702 12.717 14.3797C12.9074 14.1893 13.0026 13.9534 13.0026 13.6718C13.0026 13.3903 12.9074 13.1543 12.717 12.9639C12.5266 12.7734 12.2906 12.6781 12.0091 12.6781C11.7275 12.6781 11.4916 12.7734 11.3011 12.9639C11.1106 13.1543 11.0153 13.3903 11.0153 13.6718C11.0153 13.9534 11.1106 14.1893 11.3011 14.3797C11.4916 14.5702 11.7275 14.6654 12.0091 14.6654ZM2.32156 8.99224C2.60531 8.99224 2.84316 8.89703 3.0351 8.70661C3.22719 8.5162 3.32323 8.28023 3.32323 7.9987C3.32323 7.71717 3.22719 7.4812 3.0351 7.29078C2.84316 7.10036 2.60531 7.00516 2.32156 7.00516C2.04226 7.00516 1.80816 7.10036 1.61927 7.29078C1.43038 7.4812 1.33594 7.71717 1.33594 7.9987C1.33594 8.28023 1.43038 8.5162 1.61927 8.70661C1.80816 8.89703 2.04226 8.99224 2.32156 8.99224ZM12.0091 3.31932C12.2906 3.31932 12.5266 3.22404 12.717 3.03349C12.9074 2.84307 13.0026 2.6071 13.0026 2.32557C13.0026 2.04405 12.9074 1.80807 12.717 1.61766C12.5266 1.42724 12.2906 1.33203 12.0091 1.33203C11.7275 1.33203 11.4916 1.42724 11.3011 1.61766C11.1106 1.80807 11.0153 2.04405 11.0153 2.32557C11.0153 2.6071 11.1106 2.84307 11.3011 3.03349C11.4916 3.22404 11.7275 3.31932 12.0091 3.31932Z" fill="white"/>
</svg>
